<?xml version="1.0" encoding="utf-8"?>
<!-- Generator: Adobe Illustrator 16.0.0, SVG Export Plug-In . SVG Version: 6.00 Build 0)  -->
<!DOCTYPE svg PUBLIC "-//W3C//DTD SVG 1.1//EN" "http://www.w3.org/Graphics/SVG/1.1/DTD/svg11.dtd">
<svg version="1.1" id="圖層_1" xmlns="http://www.w3.org/2000/svg" xmlns:xlink="http://www.w3.org/1999/xlink" x="0px" y="0px"
	 width="164.5px" height="163.786px" viewBox="0 0 164.5 163.786" enable-background="new 0 0 164.5 163.786" xml:space="preserve">
<g>
	<circle fill="#F7C4AA" cx="82.164" cy="81.893" r="79.862"/>
	<path fill="#FCB595" d="M138.635,25.422c31.188,31.188,31.188,81.753,0,112.942c-31.188,31.187-81.753,31.187-112.941,0"/>
	<path fill="#FFFDFF" d="M25.924,59.962c1.375,1.094,2.793,2.121,4.179,3.208c3.169,2.484,7.04,3.587,10.081,6.288
		c3.594,3.19,3.365,9.293,3.924,13.692c0.213,1.673,0.377,3.703,1.271,5.176c0.884,1.455,3.255,2.151,4.873,1.803
		c1.544-0.333,2.633-1.632,3.397-2.934c1.263-2.147,1.992-4.406,2.341-6.854c0.172-1.211,0.289-2.442,0.276-3.667
		c-0.026-2.266-0.173-4.787-0.942-6.938c-0.535-1.496-0.862-3.45-0.477-5.012c1.007-4.097,5.672-6.022,9.205-7.298
		c4.171-1.506,8.524-2.063,12.863-2.862C80.68,53.87,84.45,53.23,88.225,52.6c3.625-0.605,7.527-0.941,11.025-2.099
		c2.672-0.882,5.271-2.487,4.459-5.683c-1.473-5.776-9.576-4.069-13.633-3.685c-6.585,0.624-13.002,1.771-19.601,2.141
		c-1.627,0.091-3.359,0.457-4.975,0.225c2.451-3.655,4.229-9.273-1.932-10.155c2.082-3.028,0.871-7.09-2.918-7.582
		c0.862-2.794,1.335-5.326-1.422-7.182c-2.832-1.908-6.66-1.864-9.921-2.375c-3.984-0.625-7.72-0.84-11.576-0.676
		c-4.246,2.849-8.285,6.139-12.038,9.891c-8.529,8.53-14.709,18.514-18.573,29.149c1.203,0.138,2.398,0.311,3.577,0.554
		C15.533,56.125,21.916,56.778,25.924,59.962z"/>
	<path fill="#FFFDFF" d="M157.816,107.481c-2.697-0.202-5.406-0.409-8.032-0.953c-4.836-1.001-11.22-1.654-15.228-4.838
		c-1.376-1.094-2.795-2.121-4.179-3.208c-3.169-2.484-7.04-3.586-10.081-6.288c-3.594-3.189-3.365-9.292-3.926-13.692
		c-0.212-1.673-0.375-3.703-1.27-5.176c-0.885-1.455-3.255-2.151-4.873-1.804c-1.545,0.332-2.633,1.635-3.397,2.935
		c-1.262,2.146-1.992,4.406-2.341,6.854c-0.172,1.211-0.29,2.442-0.276,3.667c0.026,2.267,0.172,4.786,0.942,6.938
		c0.535,1.496,0.862,3.45,0.478,5.012c-1.008,4.098-5.672,6.022-9.205,7.298c-4.173,1.506-8.526,2.063-12.864,2.863
		c-3.764,0.693-7.533,1.334-11.309,1.964c-3.624,0.605-7.527,0.941-11.025,2.1c-2.672,0.882-5.271,2.487-4.457,5.682
		c1.471,5.777,9.574,4.069,13.631,3.685c6.586-0.624,13.002-1.772,19.602-2.142c1.627-0.091,3.358-0.458,4.973-0.226
		c-2.45,3.656-4.227,9.275,1.934,10.157c-2.082,3.026-0.872,7.089,2.917,7.581c-0.861,2.793-1.334,5.326,1.422,7.184
		c2.833,1.907,6.659,1.863,9.922,2.374c5.449,0.855,10.433,0.95,15.897,0.347c1.251-0.138,2.483-0.336,3.709-0.563
		c2.726-2.098,5.358-4.372,7.855-6.869C147.626,129.371,154.01,118.765,157.816,107.481z"/>
	<path fill="#FCB595" d="M99.811,48.146c1.661-0.659,2.865-2.284,1.807-4.042c-1.054-1.756-4.118-1.617-5.709-0.892
		c-1.813,0.825-2.225,3.784-0.468,4.976c0.734,0.498,2.654,0.372,3.486,0.213C99.228,48.346,99.523,48.259,99.811,48.146z"/>
	<path fill="#FCB595" d="M49.197,88.404c-1.417,0.398-2.735,0.789-3.582-0.612c-0.676-1.119-0.888-3.354-0.993-4.637
		c-0.333-4.06,3.16-3.03,3.898,0.119c0.357,1.528,0.38,3.146,0.677,4.693"/>
	<path fill="#FCB595" d="M112.876,78.635c0.25,1.199,0.761,2.167,1.54,2.394c1.009,0.295,2.055-0.22,2.532-1.083
		c0.894-1.613,0.944-4.578-0.248-6.03c-0.621-0.756-1.789-1.563-2.756-0.951C112.804,73.688,112.436,76.52,112.876,78.635z"/>
	<path fill="#FCB595" d="M114.445,120.635c-0.08-0.389-0.336-0.713-0.828-0.879c-0.927-0.312-2.66,0.08-3.007,1.086
		c-0.229,0.661-0.044,1.654,0.494,2.128C112.661,124.347,114.732,122.057,114.445,120.635z"/>
	<path fill="#FCB595" d="M115.018,126.746c-0.685-0.073-1.628,0.257-2.059,0.56c-0.846,0.599-0.335,2.078,0.381,2.616
		c0.636,0.479,1.455-0.058,1.936-0.561c0.525-0.553,1.043-1.88,0.241-2.446C115.382,126.822,115.21,126.768,115.018,126.746z"/>
	<path fill="#FCB595" d="M115.092,135.728c-0.035-0.217-0.136-0.398-0.324-0.517c-0.8-0.504-2.377,0.135-2.065,1.196
		c0.202,0.676,0.505,2.056,1.466,1.417C114.62,137.523,115.21,136.444,115.092,135.728z"/>
	<path fill="#FFFFFF" d="M98.166,82.105c0,0-7.544,9.354-16.849,9.354c-9.306,0-16.849-9.354-16.849-9.354s7.543-9.355,16.849-9.355
		C90.622,72.75,98.166,82.105,98.166,82.105z"/>
	<circle fill="#F7C4AA" cx="81.316" cy="82.105" r="6.793"/>
</g>
</svg>
