<?xml version="1.0" encoding="utf-8"?>
<!-- Generator: Adobe Illustrator 16.0.0, SVG Export Plug-In . SVG Version: 6.00 Build 0)  -->
<!DOCTYPE svg PUBLIC "-//W3C//DTD SVG 1.1//EN" "http://www.w3.org/Graphics/SVG/1.1/DTD/svg11.dtd">
<svg version="1.1" id="圖層_1" xmlns="http://www.w3.org/2000/svg" xmlns:xlink="http://www.w3.org/1999/xlink" x="0px" y="0px"
	 width="164.75px" height="164.035px" viewBox="0 0 164.75 164.035" enable-background="new 0 0 164.75 164.035"
	 xml:space="preserve">
<g>
	<circle fill="#F9EC7A" cx="82.428" cy="82.924" r="79.862"/>
	<path fill="#F9E555" d="M138.898,26.453c31.188,31.188,31.188,81.753,0,112.942c-31.188,31.187-81.754,31.187-112.941,0"/>
	<g>
		<path fill="#FC7E7E" d="M38.765,134.083c-1.224,0-2.076-0.393-2.536-1.17c-1.011-1.708,0.48-4.494,0.961-5.306l1.031,0.61
			c-0.842,1.421-1.465,3.236-0.962,4.087c0.244,0.412,0.809,0.617,1.66,0.579c1.476-0.048,3.32-1.742,4.803-3.104
			c0.574-0.527,1.105-1.014,1.566-1.369c2.613-2.008,4.835-4.534,6.984-6.977c0.729-0.827,1.456-1.654,2.199-2.464
			c0.812-0.885,1.718-1.689,2.595-2.468c2.034-1.805,3.955-3.51,4.668-6.078c0.196-0.706,0.355-1.386,0.514-2.055
			c0.36-1.529,0.7-2.972,1.401-4.561c0.163-0.368,0.336-0.74,0.512-1.117c0.098-0.208,0.194-0.417,0.29-0.625
			c-0.23-0.146-0.455-0.311-0.67-0.497c-2.018-1.743-2.877-4.059-2.42-6.52c0.156-0.843,0.467-1.675,0.9-2.463
			c-0.393-0.26-0.8-0.516-1.211-0.774c-2.801-1.76-5.975-3.755-5.215-7.999c0.027-0.146,0.059-0.295,0.098-0.445
			c-0.864-1.212-1.401-2.455-1.391-3.742c0.015-1.581,0.876-3.074,2.563-4.438c4.013-3.248,8.153-5.19,12.73-6.521
			c2.213-2.741,4.934-5.191,7.852-6.059c2.324-0.691,4.523-0.326,6.54,1.079c1.51,1.053,1.865,3.551,1.878,6.562
			c5.033,1.149,10.985,2.989,12.063,6.622c0.635-0.341,1.498-0.482,2.626-0.439c2.348,0.097,4.201,1.264,5.358,3.377
			c1.644,3.001,1.56,7.706-0.19,10.711c-1.444,2.479-3.87,3.089-6.234,2.994c-0.072,1.281-0.089,2.565,0.063,3.801
			c0.243,1.985-0.07,3.359-0.96,4.196c-1.476,1.392-4.077,0.917-6.83,0.415c-0.954-0.174-1.94-0.354-2.859-0.447
			c-1.003-0.102-2.014-0.169-3.043-0.203c0.415,1.568,0.488,2.93-0.277,3.751c-0.766,0.82-2.17,0.905-4.289,0.257l-0.372-0.113
			l-0.048-0.385c-0.177-1.403,0.303-2.513,0.987-3.47c-2.46,0.124-5.09,0.426-8.033,0.914c-0.432,0.071-0.886,0.157-1.353,0.247
			c-2.254,0.429-4.937,0.943-7.186,0.115c-0.094,0.204-0.188,0.406-0.281,0.605c-0.171,0.369-0.341,0.734-0.5,1.094
			c-0.657,1.488-0.985,2.879-1.332,4.353c-0.161,0.684-0.324,1.379-0.525,2.1c-0.807,2.908-2.952,4.813-5.027,6.654
			c-0.854,0.758-1.736,1.542-2.507,2.381c-0.738,0.804-1.46,1.625-2.183,2.446c-2.188,2.486-4.449,5.057-7.153,7.136
			c-0.438,0.337-0.941,0.8-1.487,1.301c-1.628,1.496-3.654,3.356-5.573,3.419C38.893,134.082,38.827,134.083,38.765,134.083z
			 M82.273,104.252c1.36,0.368,2.304,0.356,2.67-0.041c0.451-0.483,0.284-1.644-0.098-2.958c-0.389-0.006-0.775,0-1.17,0.009
			C82.866,102.178,82.255,103.076,82.273,104.252z M66.011,101.494c1.916,0.677,4.309,0.221,6.478-0.193
			c0.478-0.091,0.941-0.179,1.381-0.253c2.719-0.45,5.179-0.744,7.485-0.888c-1.687-0.426-3.348-1.066-4.978-1.693
			c-2.143-0.825-4.346-1.673-6.564-2.017c-0.55-0.058-1.1-0.111-1.65-0.157l0.067-1.195c0.235,0.008,0.47,0.021,0.703,0.041
			c-0.212-0.111-0.424-0.222-0.635-0.332c-0.525-0.275-1.051-0.551-1.58-0.814l-0.01-0.004c-0.325-0.139-0.627-0.269-0.947-0.46
			l0.283-0.538c-0.426-0.505-0.934-1.021-1.497-1.548c-0.239,0.259-0.462,0.531-0.667,0.813c1.533,1.142,2.779,2.497,3.018,4.481
			C67.098,98.404,66.626,100.006,66.011,101.494z M87.071,100.119c0.736,0.038,1.465,0.095,2.191,0.168
			c0.966,0.098,1.975,0.282,2.953,0.46c2.339,0.428,4.76,0.868,5.793-0.107c0.583-0.551,0.782-1.621,0.593-3.18
			c-0.164-1.341-0.144-2.705-0.067-4.056c-1.243-0.169-2.424-0.491-3.391-0.792c-1.743,2.129-4.675,4.376-6.205,4.376
			c-0.022,0-0.042,0-0.063-0.001c-0.216-0.008-0.413-0.037-0.595-0.08c0.135,0.619,0.099,1.294-0.136,1.888
			C87.926,99.355,87.558,99.803,87.071,100.119z M63.244,93.276c-0.337,0.64-0.579,1.313-0.705,1.992
			c-0.267,1.433-0.131,3.532,2.025,5.395c0.121,0.104,0.246,0.201,0.375,0.29c0.546-1.333,0.934-2.693,0.768-4.073
			C65.525,95.355,64.539,94.254,63.244,93.276z M85.454,99.281c0.019,0.052,0.037,0.102,0.056,0.153
			c0.762-0.104,1.284-0.47,1.521-1.076c0.305-0.772,0.049-1.664-0.361-2.047c-0.154-0.143-0.321-0.213-0.506-0.213l0,0
			c-0.175,0.055-0.354,0.104-0.536,0.149l-0.831,0.2c0.444,0.079,0.881,0.187,1.307,0.333l0.583,0.2l-0.215,0.576
			C86.232,98.193,85.87,98.756,85.454,99.281z M77.577,97.644c2.11,0.805,4.146,1.527,6.193,1.75
			c0.107-0.117,0.214-0.233,0.316-0.35c-0.115-0.308-0.23-0.608-0.341-0.896c-0.085-0.22-0.169-0.439-0.252-0.656
			c-1.029-0.072-2.111-0.028-3.184,0.031l-0.233,0.057l0.102-0.049c-0.099,0.005-0.196,0.011-0.295,0.017
			C79.121,97.592,78.344,97.637,77.577,97.644z M78.576,93.107c0.206,1.126,0.655,2.245,1.177,3.019l0.147,0.222
			c0.977-0.056,1.96-0.111,2.94-0.086l0.172-0.082c-0.292-0.845-0.51-1.616-0.571-2.252c-0.02-0.205-0.037-0.444-0.058-0.704
			c-0.042-0.576-0.1-1.364-0.226-2.118c-0.102,0.031-0.206,0.052-0.315,0.064c-0.025,0.022-0.052,0.044-0.078,0.066
			C80.958,91.902,79.842,92.55,78.576,93.107z M72.637,95.551c1.844,0.197,3.751,0.367,5.606,0.341
			c-0.337-0.69-0.62-1.498-0.794-2.329c-2.149,0.798-4.585,1.303-6.563,1.219C71.467,95.063,72.047,95.324,72.637,95.551z
			 M87.894,95.304c0.246,0.309,0.57,0.468,1.032,0.487c0.011,0,0.023,0.001,0.036,0.001c1.045,0,3.42-1.854,4.962-3.578
			c-1.2-0.412-2.22-0.934-3.115-1.539c-0.047,0.466-0.131,1.011-0.368,1.611C89.946,93.535,89.059,94.573,87.894,95.304z
			 M83.198,90.208c0.237,0.979,0.316,2.06,0.381,2.926c0.019,0.251,0.035,0.48,0.055,0.677c0.048,0.498,0.226,1.135,0.468,1.848
			l1.128-0.537c0.233-0.112,0.471-0.183,0.703-0.211c0.13-0.043,0.257-0.091,0.382-0.142c-0.167-0.514-0.274-1.059-0.376-1.565
			c-0.126-0.628-0.243-1.221-0.438-1.691c-0.348-0.844-0.906-1.525-1.495-2.246c-0.133-0.161-0.267-0.324-0.398-0.49
			C83.535,89.326,83.409,89.815,83.198,90.208z M83.669,86.742c0.329,0.628,0.785,1.184,1.263,1.767
			c0.619,0.756,1.26,1.539,1.676,2.547c0.239,0.579,0.375,1.258,0.506,1.915c0.094,0.47,0.183,0.878,0.282,1.228
			c0.883-0.591,1.552-1.397,1.931-2.354c0.231-0.581,0.275-1.097,0.318-1.596c0.013-0.142,0.025-0.285,0.041-0.428
			c-1.24-1.055-2.228-2.285-3.16-3.587c-1.237,0.243-2.259,0.385-2.857,0.458C83.668,86.708,83.669,86.725,83.669,86.742z
			 M68.887,87.525l-0.541,1.265c-0.857,2.007-0.796,3.396,0.185,4.129c1.688,1.26,5.563,0.664,8.745-0.571
			c-0.045-0.657-0.008-1.302,0.139-1.89c0.108-0.431,0.271-0.823,0.487-1.17c-1.151-0.816-2.435-1.835-3.484-3.055
			c-0.657-0.062-1.3-0.115-1.906-0.165c-1.866-0.153-3.478-0.286-4.447-0.576c-1.977-0.592-3.223-1.475-3.812-2.7
			c-0.36-0.75-0.479-1.6-0.345-2.639l-0.597,0.017c-3.265,0.1-5.293,1.101-6.047,2.977c1.294,1.626,3.24,3.257,5.148,4.856
			c0.729,0.611,1.444,1.21,2.115,1.802c0.907-0.785,1.951-1.415,3.065-1.816L68.887,87.525z M99.807,92.318
			c2.128,0.107,3.995-0.473,5.119-2.401c1.561-2.677,1.638-6.865,0.177-9.533c-0.66-1.203-1.95-2.657-4.358-2.756
			c-1.244-0.048-2.059,0.162-2.402,0.632c-0.001,0.004-0.004,0.007-0.008,0.011c0,0.018-0.001,0.036-0.003,0.054
			c-0.023,0.408-0.094,0.796-0.207,1.166c0.09,0.889,0.505,2.005,0.888,3.033c0.318,0.853,0.617,1.658,0.76,2.372
			c0.435,2.189,0.259,4.501,0.087,6.738C99.841,91.861,99.824,92.089,99.807,92.318z M95.895,91.581
			c0.916,0.265,1.832,0.486,2.719,0.617c0.018-0.219,0.033-0.438,0.051-0.655c0.173-2.255,0.335-4.385-0.069-6.413
			c-0.123-0.62-0.405-1.382-0.705-2.188c-0.223-0.596-0.446-1.199-0.624-1.786c-1.94,2.592-6.136,4.036-9.46,4.805
			c0.697,0.946,1.421,1.825,2.264,2.604c0.246-0.411,0.65-0.803,1.33-1.157c1.271-0.661,2.852-0.627,3.93,0.085
			c0.849,0.562,1.288,1.476,1.208,2.508C96.503,90.445,96.268,90.991,95.895,91.581z M78.889,89.969
			c-0.135,0.23-0.239,0.491-0.311,0.781c-0.086,0.341-0.125,0.712-0.125,1.098c0.687-0.319,1.315-0.665,1.851-1.021
			c-0.281-0.132-0.579-0.303-0.895-0.512C79.244,90.205,79.071,90.09,78.889,89.969z M65.417,90.615
			c0.422,0.398,0.817,0.792,1.176,1.186c-0.085-0.579-0.048-1.277,0.175-2.118C66.29,89.95,65.837,90.265,65.417,90.615z
			 M56.939,84.614c-0.239,3.049,2.188,4.575,4.748,6.184c0.406,0.256,0.815,0.512,1.216,0.778c0.234-0.323,0.488-0.635,0.762-0.932
			c-0.641-0.562-1.324-1.135-2.021-1.72C59.964,87.518,58.258,86.087,56.939,84.614z M91.013,89.352
			c0.95,0.713,2.053,1.313,3.405,1.765c0.102,0.034,0.204,0.068,0.307,0.102c0.362-0.514,0.592-0.973,0.618-1.311
			c0.06-0.762-0.334-1.191-0.676-1.417c-0.724-0.479-1.813-0.489-2.715-0.021C91.406,88.754,91.146,89.02,91.013,89.352z
			 M79.759,89.108c0.104,0.07,0.208,0.139,0.313,0.208c0.523,0.347,0.979,0.564,1.324,0.637c0.115-0.116,0.232-0.248,0.335-0.385
			c-0.149-0.32-0.335-0.568-0.566-0.695c-0.312-0.174-0.764-0.108-1.34,0.199C79.803,89.083,79.78,89.096,79.759,89.108z
			 M76.787,86.888c0.596,0.515,1.243,1.011,1.917,1.493c0.172-0.137,0.359-0.26,0.559-0.366c0.572-0.305,1.103-0.452,1.585-0.435
			c-1.042-0.542-2.612-0.875-4.286-1.103L76.787,86.888z M75.844,85.176c2.773,0.317,5.354,0.85,6.637,2.108
			c0-0.083-0.001-0.167-0.003-0.253c-0.013-0.026-0.023-0.051-0.036-0.077c-0.444-0.998-0.497-2.146-0.527-3.27
			c-1.815-0.002-3.239-0.313-3.971-1.141c-0.378-0.427-0.742-1.194-0.343-2.429c0.447-1.39,1.145-1.938,1.685-2.15
			c-0.074,0.022-0.146,0.046-0.217,0.068c-1.073,0.338-2.068,0.652-2.936,0.878c-1.167,0.304-2.301,0.526-3.418,0.691l0.688,1.251
			c0.138,0.249,0.279,0.481,0.42,0.71c0.144,0.235,0.285,0.468,0.42,0.711L75.844,85.176z M83.112,83.646
			c0.018,0.667,0.041,1.308,0.148,1.89c0.677-0.069,1.546-0.189,2.518-0.369c-0.107-0.156-0.216-0.313-0.323-0.47
			c-0.269-0.392-0.539-0.787-0.818-1.185C84.11,83.571,83.603,83.617,83.112,83.646z M75.026,85.089
			c0.031,0.003,0.063,0.006,0.094,0.01l-0.554-0.638C74.708,84.673,74.862,84.883,75.026,85.089z M65.126,80.122
			c-0.139,0.886-0.067,1.585,0.206,2.154c0.434,0.904,1.44,1.582,3.074,2.071c0.851,0.254,2.479,0.388,4.202,0.529
			c0.281,0.023,0.563,0.046,0.848,0.07c-0.632-1.004-1.068-2.118-1.159-3.342c-0.332-0.529-0.682-1.151-1-1.821
			C69.235,80.007,67.211,80.066,65.126,80.122z M86.774,83.22c0.156,0.256,0.337,0.465,0.551,0.62
			c0.61,0.446,1.498,0.447,2.71,0.001c0.841-0.309,1.622-0.892,2.224-1.603c-0.481,0.073-1.174,0.206-1.948,0.353
			C89.119,82.819,87.926,83.039,86.774,83.22z M88.247,74.853c1.562,0,3.023,0.281,4.274,1.003c1.503,0.867,2.254,2.245,2.113,3.877
			c-0.089,1.03-0.54,2.078-1.223,2.98c1.661-0.886,2.983-2.002,3.498-3.387c-0.021-0.493,0.042-0.954,0.229-1.365
			c-0.134-3.429-6.106-5.332-11.043-6.482c-0.02,0.87-0.054,1.771-0.089,2.682c-0.012,0.286-0.023,0.575-0.035,0.865
			C86.745,74.916,87.508,74.853,88.247,74.853z M79.967,79.032c-0.033,0-0.066,0.002-0.098,0.007
			c-0.442,0.066-0.854,0.592-1.131,1.443c-0.271,0.844,0.01,1.163,0.102,1.268c0.483,0.547,1.646,0.756,3.037,0.741
			c-0.052-0.976-0.184-1.869-0.661-2.551C80.813,79.363,80.354,79.032,79.967,79.032z M82.961,81.286
			c0.061,0.381,0.094,0.771,0.114,1.164c0.246-0.016,0.497-0.036,0.75-0.059C83.549,82.021,83.262,81.652,82.961,81.286z
			 M85.934,76.24c-0.059,2.187-0.029,4.336,0.378,5.841c1.42-0.215,2.768-0.474,3.773-0.666c1.092-0.209,1.954-0.375,2.455-0.419
			l0.07,0.784c0.463-0.673,0.767-1.423,0.831-2.149c0.068-0.809-0.138-1.94-1.52-2.737C90.302,75.958,88.181,75.898,85.934,76.24z
			 M81.128,77.394c0.851,0.898,1.746,1.915,2.688,3.047c0.446,0.536,0.858,1.075,1.25,1.611c-0.355-1.541-0.39-3.493-0.337-5.595
			C83.527,76.705,82.31,77.04,81.128,77.394z M68.588,70.314c-3.821,1.271-7.334,3.058-10.729,5.806
			c-1.414,1.144-2.106,2.295-2.117,3.518c-0.007,0.79,0.268,1.588,0.74,2.389c0.906-1.554,2.835-2.929,6.792-3.052l0.879-0.024
			c0.163-0.612,0.395-1.284,0.695-2.028C65.514,75.275,66.83,72.781,68.588,70.314z M70.498,69.728
			c-2.153,2.749-3.782,5.769-4.54,7.644c-0.227,0.56-0.409,1.073-0.55,1.544c1.877-0.051,3.638-0.108,5.399-0.283
			c-0.551-1.474-0.837-3.04-0.395-4.283c0.271-0.765,0.952-1.739,2.649-2.036c1.694-0.296,4.082,1.084,7.125,4.113
			c1.48-0.456,3.039-0.899,4.58-1.2c0.014-0.369,0.028-0.741,0.042-1.115c0.037-0.956,0.076-1.943,0.091-2.904
			c-0.767-0.168-1.491-0.317-2.144-0.452c-1.139-0.235-2.115-0.437-2.813-0.624l-0.801-0.213l0.454-0.694
			c0.393-0.601,0.92-1.123,1.474-1.613C77.24,68.185,73.751,68.805,70.498,69.728z M73.522,73.473c-0.098,0-0.183,0.008-0.254,0.021
			c-0.919,0.161-1.483,0.573-1.727,1.259c-0.343,0.963-0.044,2.372,0.499,3.738c1.235-0.164,2.484-0.397,3.789-0.738
			c0.852-0.222,1.826-0.53,2.878-0.862c0.059-0.02,0.12-0.038,0.181-0.058C75.911,73.976,74.292,73.473,73.522,73.473z
			 M81.153,69.192c0.536,0.121,1.16,0.25,1.846,0.391c0.597,0.124,1.238,0.256,1.902,0.398c-0.021-1.463-0.129-2.804-0.432-3.803
			l-1.055,0.986c-0.284,0.266-0.596,0.53-0.912,0.798C82.033,68.359,81.555,68.766,81.153,69.192z M79.916,63.471
			c-0.617,0-1.246,0.095-1.887,0.285c-2.229,0.663-4.346,2.347-6.185,4.372c3.401-0.845,7.057-1.422,11.077-1.994l1.465-0.209
			c-0.201-0.564-0.476-0.998-0.846-1.255C82.396,63.872,81.183,63.471,79.916,63.471z"/>
	</g>
	<g>
		<path fill="none" d="M82.428,47.5c-21.731,0-39.348,17.616-39.348,39.348h78.695C121.775,65.116,104.16,47.5,82.428,47.5z"/>
		<linearGradient id="SVGID_1_" gradientUnits="userSpaceOnUse" x1="44.1523" y1="30.2153" x2="133.1003" y2="124.5666">
			<stop  offset="0" style="stop-color:#FFFFFF"/>
			<stop  offset="0.0986" style="stop-color:#FEFEF6"/>
			<stop  offset="0.2568" style="stop-color:#FDFADF"/>
			<stop  offset="0.455" style="stop-color:#FAF3B8"/>
			<stop  offset="0.6853" style="stop-color:#F5EB83"/>
			<stop  offset="0.9398" style="stop-color:#F0E040"/>
			<stop  offset="1" style="stop-color:#EFDD2F"/>
		</linearGradient>
		<path fill="url(#SVGID_1_)" d="M147.264,87.849c0-35.808-29.029-64.836-64.836-64.836c-33.165,0-60.486,24.912-64.338,57.041
			h25.766C47.472,62.056,63.364,48.5,82.428,48.5c21.731,0,39.349,17.617,39.349,39.348v0.001H147.264z"/>
		
			<linearGradient id="SVGID_2_" gradientUnits="userSpaceOnUse" x1="-214.769" y1="-2.2349" x2="-125.8178" y2="92.12" gradientTransform="matrix(-1 0 0 -1 -89.998 133.4893)">
			<stop  offset="0" style="stop-color:#FFFFFF"/>
			<stop  offset="0.0986" style="stop-color:#FEFEF6"/>
			<stop  offset="0.2568" style="stop-color:#FDFADF"/>
			<stop  offset="0.455" style="stop-color:#FAF3B8"/>
			<stop  offset="0.6853" style="stop-color:#F5EB83"/>
			<stop  offset="0.9398" style="stop-color:#F0E040"/>
			<stop  offset="1" style="stop-color:#EFDD2F"/>
		</linearGradient>
		<path fill="url(#SVGID_2_)" d="M145.461,72.679c-0.999,0-1.807,1.143-1.807,2.555v6.688v2.755c0,0.221-0.157,0.399-0.35,0.399
			c-0.191,0-0.35-0.179-0.35-0.399v-2.755V72.77c0-1.965-1.08-3.558-2.412-3.558c-1.144,0-2.097,1.178-2.345,2.755v12.709
			c0,0.221-0.18,0.399-0.399,0.399s-0.399-0.179-0.399-0.399V70.244c-0.16-1.732-1.14-3.07-2.338-3.07
			c-1.311,0-2.373,1.592-2.373,3.558v11.19h-0.016v2.755c0,0.221-0.179,0.399-0.398,0.399c-0.221,0-0.399-0.179-0.399-0.399V72.262
			c-0.167-1.723-1.151-3.05-2.354-3.05c-1.265,0-2.289,1.472-2.37,3.327v12.137c0,0.221-0.18,0.399-0.399,0.399
			s-0.399-0.179-0.399-0.399v-2.755V75.79c0-1.562-1.025-2.826-2.288-2.826c-1.264,0-2.288,1.265-2.288,2.826v6.131v0.001
			c0,21.732-17.615,39.348-39.348,39.348c-21.731,0-39.349-17.616-39.349-39.348v-0.001H17.592
			c0,35.808,29.029,64.836,64.836,64.836c35.123,0,63.707-27.936,64.784-62.799c0.031-0.188,0.052-0.381,0.052-0.583v-8.142
			C147.264,73.822,146.456,72.679,145.461,72.679z"/>
		<path fill="#FFFFFF" d="M17.644,85.813c-0.031,0.188-0.052,0.381-0.052,0.583v8.141c0,1.412,0.808,2.555,1.803,2.555
			c0.999,0,1.807-1.144,1.807-2.555v-6.688v-2.755c0-0.221,0.157-0.399,0.35-0.399c0.191,0,0.35,0.179,0.35,0.399v2.755V97
			c0,1.965,1.08,3.558,2.412,3.558c1.144,0,2.097-1.178,2.345-2.755V85.094c0-0.221,0.18-0.399,0.399-0.399s0.399,0.179,0.399,0.399
			v14.433c0.16,1.732,1.14,3.071,2.338,3.071c1.311,0,2.372-1.593,2.372-3.558v-11.19h0.016v-2.755c0-0.221,0.18-0.399,0.399-0.399
			c0.221,0,0.399,0.179,0.399,0.399v12.415c0.167,1.723,1.151,3.05,2.354,3.05c1.266,0,2.29-1.472,2.371-3.327V85.094
			c0-0.221,0.18-0.399,0.399-0.399s0.399,0.179,0.399,0.399v2.755v6.131c0,1.562,1.024,2.827,2.288,2.827s2.288-1.265,2.288-2.827
			v-6.131v-0.001c0-2.668,0.269-5.274,0.775-7.794H18.09C17.861,81.951,17.703,83.869,17.644,85.813z"/>
	</g>
	<g>
		<path fill="#FC7E7E" d="M37.702,129.19l-1.092-0.493c0.622-1.377,1.23-2.973,1.762-4.615c2.059-6.371,6.828-11.996,12.756-15.046
			c6.554-3.376,13.047-0.104,17.358,2.65c3.057,1.951,5.806,4.684,7.741,7.694c0.071,0.11,0.146,0.271,0.223,0.441
			c0.055,0.125,0.148,0.334,0.198,0.391c0,0,0.488,0.719,0.389,0.69l-0.864-0.128c-0.438-0.126-0.64-0.068-0.815-0.465
			c-0.049-0.107-0.093-0.211-0.138-0.281c-1.844-2.869-4.464-5.473-7.378-7.333c-4.063-2.594-10.159-5.685-16.166-2.594
			c-5.653,2.909-10.199,8.273-12.163,14.349C38.968,126.135,38.342,127.773,37.702,129.19z"/>
	</g>
	<g>
		<path fill="#FC7E7E" d="M93.203,149.678c-0.222,0-0.446-0.022-0.671-0.068c-1.544-0.316-3.176-2.023-3.825-3.153l1.428-0.207
			c0.652,1.134,1.686,1.992,2.636,2.187c0.63,0.128,1.223-0.02,1.775-0.437c1.173-0.887,1.232-3.056,1.28-4.799
			c0.011-0.4,0.021-0.777,0.044-1.114c0.212-3.164-0.227-6.398-0.65-9.527c-0.234-1.731-0.478-3.516-0.611-5.295
			c-4.035,0.201-6.727-1.636-7.396-5.107c-0.336-1.737,0.181-3.121,1.418-3.796c1.547-0.846,3.814-0.371,5.392,1.132l-1.282,0.412
			c-1.17-1.116-2.464-1.076-3.536-0.493c-0.973,0.532-0.98,1.663-0.815,2.518c0.784,4.058,4.537,4.303,6.72,4.097l0.617-0.061
			l0.038,0.62c0.118,1.935,0.385,3.906,0.644,5.813c0.433,3.188,0.88,6.484,0.658,9.767c-0.021,0.323-0.031,0.685-0.042,1.068
			c-0.055,2-0.121,4.488-1.756,5.722C94.633,149.434,93.93,149.678,93.203,149.678z"/>
	</g>
	<g>
		<path fill="#FC7E7E" d="M127.417,131.867c-0.088,0-0.175-0.006-0.264-0.018c-1.468-0.195-2.787-1.986-3.952-3.565
			c-0.498-0.675-1.013-1.372-1.321-1.601c-2.34-1.739-4.845-2.815-7.448-3.202c-5.946-0.879-11.842,1.387-16.322,3.462
			c-6.125,2.839-11.056,2.207-15.07-1.927c-1.755-1.806-4.119-5.567-3.439-8.524c0.334-1.454,1.376-2.536,3.011-3.13
			c2.653-0.963,5.593-0.367,7.574,0.165c2.713,0.727,4.96,1.635,6.939,2.485l0.645,0.279c0.399,0.179,1.4-0.002,1.771,0.017
			c0.202,0.02,2.813-0.426,2.928-0.516l-1.924,1.218c-0.658,0.516-3.519,0.263-3.519,0.263c-1.942-0.834-4.511-1.883-7.148-2.589
			c-1.825-0.49-4.521-1.042-6.857-0.196c-1.27,0.461-2.006,1.205-2.251,2.272c-0.507,2.205,1.234,5.469,3.13,7.421
			c3.62,3.726,8.103,4.272,13.71,1.675c4.628-2.145,10.75-4.483,16.999-3.561c2.801,0.416,5.488,1.568,7.987,3.425
			c0.452,0.336,0.947,1.004,1.571,1.852c0.922,1.25,2.184,2.961,3.146,3.09c0.22,0.027,0.391-0.027,0.579-0.178
			c0.46-0.364,0.574-1.532,0.656-2.384c0.042-0.435,0.015-0.538,0.083-0.831l1.235-1.165c-0.06,0.25-0.091,1.738-0.126,2.111
			c-0.109,1.125-0.245,2.525-1.104,3.207C128.262,131.718,127.854,131.867,127.417,131.867z"/>
	</g>
</g>
</svg>
