<?xml version="1.0" encoding="utf-8"?>
<!-- Generator: Adobe Illustrator 16.0.0, SVG Export Plug-In . SVG Version: 6.00 Build 0)  -->
<!DOCTYPE svg PUBLIC "-//W3C//DTD SVG 1.1//EN" "http://www.w3.org/Graphics/SVG/1.1/DTD/svg11.dtd">
<svg version="1.1" id="圖層_1" xmlns="http://www.w3.org/2000/svg" xmlns:xlink="http://www.w3.org/1999/xlink" x="0px" y="0px"
	 width="170.667px" height="163.786px" viewBox="0 0 170.667 163.786" enable-background="new 0 0 170.667 163.786"
	 xml:space="preserve">
<g>
	<circle fill="#6DACCC" cx="86.88" cy="82.86" r="79.862"/>
	<path fill="#489FC1" d="M143.351,26.389c31.187,31.188,31.187,81.753,0,112.941c-31.188,31.188-81.753,31.188-112.941,0"/>
	<path fill="#FFFFFF" d="M113.619,30.651c-15.131-6.002-32.288-5.982-47.136,0.76C45.465,40.955,38.765,67.05,33.241,87.308
		c-1.088,3.992-2.278,7.896-2.923,12.021c0.884,0.067,11.072,0.141,11.094,0.892c0.229,7.567,0.251,13.378,2.361,20.223
		c4.733,1.036,11.051,1.354,17.614-1.415l0.621,1.471c-4.064,1.716-8.006,2.331-11.568,2.331c-2.195,0-4.246-0.234-6.093-0.587
		c0,0.001,0.001,0.002,0.001,0.002c0.089,0.252,0.18,0.502,0.276,0.759c1.349,3.616,2.478,5.977,5.111,8.918
		c2.247,2.509,5.625,3.843,7.153,6.953c1.641,3.339,1.593,6.739,1.498,10.073c9.424,3.912,19.754,6.082,30.594,6.082
		c9.854,0,19.287-1.796,28.001-5.06c-0.121-4.329,0.136-11.036,0.411-12.294c1.57-7.195,3.525-14.099,6.358-20.916
		C135.137,89.346,151.265,45.581,113.619,30.651z"/>
	<path opacity="0.3" fill="#F7C4AA" d="M113.089,36.899c-5.906-2.521-12.325-3.634-18.794-4.032
		c-8.122-0.499-17.326-0.348-23.863,5.281c-10.771,9.277-4.088,20.945,3.963,29.25c5.321,5.488,11.614,10.425,18.477,13.857
		c4.442,2.222,11.586,2.942,16.478,2.579c13.118-0.975,20.472-13.357,19.527-25.68C128.122,48.311,121.964,40.687,113.089,36.899z"
		/>
	<g>
		<defs>
			<filter id="Adobe_OpacityMaskFilter" filterUnits="userSpaceOnUse" x="86.159" y="59.609" width="27.027" height="27.027">
				<feFlood  style="flood-color:white;flood-opacity:1" result="back"/>
				<feBlend  in="SourceGraphic" in2="back" mode="normal"/>
			</filter>
		</defs>
		<mask maskUnits="userSpaceOnUse" x="86.159" y="59.609" width="27.027" height="27.027" id="SVGID_1_">
			<g filter="url(#Adobe_OpacityMaskFilter)">
				
					<image overflow="visible" width="130" height="130" xlink:href="BD8E340A.jpg"  transform="matrix(0.24 0 0 0.24 84.1587 57.6089)">
				</image>
			</g>
		</mask>
		<g mask="url(#SVGID_1_)">
			<circle fill="#A6EDE6" cx="99.672" cy="73.121" r="13.514"/>
		</g>
	</g>
	<g>
		<defs>
			<filter id="Adobe_OpacityMaskFilter_1_" filterUnits="userSpaceOnUse" x="74.048" y="29.971" width="23.955" height="23.955">
				<feFlood  style="flood-color:white;flood-opacity:1" result="back"/>
				<feBlend  in="SourceGraphic" in2="back" mode="normal"/>
			</filter>
		</defs>
		<mask maskUnits="userSpaceOnUse" x="74.048" y="29.971" width="23.955" height="23.955" id="SVGID_2_">
			<g filter="url(#Adobe_OpacityMaskFilter_1_)">
				
					<image overflow="visible" width="117" height="117" xlink:href="BD8E340E.jpg"  transform="matrix(0.24 0 0 0.24 72.0479 27.9712)">
				</image>
			</g>
		</mask>
		<g mask="url(#SVGID_2_)">
			<circle fill="#F7C4AA" cx="86.025" cy="41.949" r="11.977"/>
		</g>
	</g>
	<g>
		<defs>
			<filter id="Adobe_OpacityMaskFilter_2_" filterUnits="userSpaceOnUse" x="92.304" y="34.559" width="13.851" height="13.851">
				<feFlood  style="flood-color:white;flood-opacity:1" result="back"/>
				<feBlend  in="SourceGraphic" in2="back" mode="normal"/>
			</filter>
		</defs>
		<mask maskUnits="userSpaceOnUse" x="92.304" y="34.559" width="13.851" height="13.851" id="SVGID_3_">
			<g filter="url(#Adobe_OpacityMaskFilter_2_)">
				
					<image overflow="visible" width="75" height="75" xlink:href="BD8E3409.jpg"  transform="matrix(0.24 0 0 0.24 90.3042 32.5586)">
				</image>
			</g>
		</mask>
		<g mask="url(#SVGID_3_)">
			<path fill="#F9EC7A" d="M106.155,41.482c0,3.828-3.1,6.927-6.924,6.927c-3.828,0-6.927-3.099-6.927-6.927
				c0-3.824,3.1-6.924,6.927-6.924C103.055,34.559,106.155,37.659,106.155,41.482z"/>
		</g>
	</g>
	<g>
		<defs>
			<filter id="Adobe_OpacityMaskFilter_3_" filterUnits="userSpaceOnUse" x="99.671" y="40.258" width="27.337" height="27.336">
				<feFlood  style="flood-color:white;flood-opacity:1" result="back"/>
				<feBlend  in="SourceGraphic" in2="back" mode="normal"/>
			</filter>
		</defs>
		<mask maskUnits="userSpaceOnUse" x="99.671" y="40.258" width="27.337" height="27.336" id="SVGID_4_">
			<g filter="url(#Adobe_OpacityMaskFilter_3_)">
				
					<image overflow="visible" width="131" height="131" xlink:href="BD8E340B.jpg"  transform="matrix(0.24 0 0 0.24 97.6709 38.2578)">
				</image>
			</g>
		</mask>
		<g mask="url(#SVGID_4_)">
			<path fill="#6A1CE5" d="M126.897,55.646c-0.952,7.492-7.791,12.79-15.278,11.838c-7.491-0.951-12.789-7.791-11.838-15.282
				c0.952-7.487,7.791-12.785,15.283-11.833C122.55,41.319,127.848,48.159,126.897,55.646z"/>
		</g>
	</g>
	<g>
		<defs>
			<filter id="Adobe_OpacityMaskFilter_4_" filterUnits="userSpaceOnUse" x="76.283" y="51.89" width="21.192" height="21.192">
				<feFlood  style="flood-color:white;flood-opacity:1" result="back"/>
				<feBlend  in="SourceGraphic" in2="back" mode="normal"/>
			</filter>
		</defs>
		<mask maskUnits="userSpaceOnUse" x="76.283" y="51.89" width="21.192" height="21.192" id="SVGID_5_">
			<g filter="url(#Adobe_OpacityMaskFilter_4_)">
				
					<image overflow="visible" width="105" height="105" xlink:href="BD8E3408.jpg"  transform="matrix(0.24 0 0 0.24 74.2832 49.8896)">
				</image>
			</g>
		</mask>
		<g mask="url(#SVGID_5_)">
			<path fill="#87DD87" d="M97.475,62.483c0,5.855-4.743,10.598-10.593,10.598c-5.855,0-10.599-4.743-10.599-10.598
				c0-5.852,4.743-10.594,10.599-10.594C92.732,51.89,97.475,56.632,97.475,62.483z"/>
		</g>
	</g>
</g>
</svg>
